# xmcd
#
# Track frame offsets:
#	150
#	79725
#	134250
#	189675
#	193575
#
# Disc length: 3767 seconds
#
# Revision: 0
# Processed by: cddbd v1.5.2PL0 Copyright (c) Steve Scherf et al.
# Submitted via: EasyCDDAExtractor 16.0.6.1
#
DISCID=3f0eb505
DTITLE=Χορός Αγιορειτών πατέρων - Άγιον Όρος 1000 χρόνια 08
DYEAR=2012
DGENRE=Βυζ. Εκκλησιαστική
TTITLE0=Αγρ. κ Παν. Τιμ. Ζ.-Πασαπνοάρια [Ιακ. Πρωτοψ. α']-στιχολογία και Στιχη
TTITLE0=ρά [α']
TTITLE1=Αγρ. κ Παν. Τιμ. Ζ.-Δοξαστικό Αίνων [πλ. α']
TTITLE2=Αγρ. κ Παν. Τιμ. Ζ.-Δοξολογία [Γεωργίου Βιολάκη, πλ. α', πεντάφ. εναρμ
TTITLE2=όνιος]
TTITLE3=Αγρ. κ Παν. Τιμ. Ζ.-Απολυτίκιο Αγίας Ζώνης [πλ. α']
TTITLE4=Αγρ. κ Παν. Τιμ. Ζ.-Ειρηνικά κ Κύριε ελέησον[πλ. δ']-Α[πλ.δ']κ Β[β'] Σ
TTITLE4=τάση τυπ.-Μακαρισμοί[δ' κ πλ.δ']
EXTD=
EXTT0=
EXTT1=
EXTT2=
EXTT3=
EXTT4=
PLAYORDER=
